<mxfile host="app.diagrams.net" agent="Mozilla/5.0 (X11; Linux x86_64) AppleWebKit/537.36 (KHTML, like Gecko) Chrome/127.0.0.0 Safari/537.36" version="24.7.6">
  <diagram name="Page-1" id="2YBvvXClWsGukQMizWep">
    <mxGraphModel dx="69" dy="103" grid="1" gridSize="5" guides="1" tooltips="1" connect="1" arrows="1" fold="1" page="1" pageScale="1" pageWidth="850" pageHeight="1100" math="0" shadow="0">
      <root>
        <mxCell id="0" />
        <mxCell id="1" parent="0" />
        <mxCell id="xvQEQHH_XLuV9ZaB941X-1" value="" style="endArrow=none;html=1;rounded=0;strokeWidth=0.5;" edge="1" parent="1">
          <mxGeometry width="50" height="50" relative="1" as="geometry">
            <mxPoint x="440" y="480" as="sourcePoint" />
            <mxPoint x="680" y="480" as="targetPoint" />
          </mxGeometry>
        </mxCell>
        <mxCell id="xvQEQHH_XLuV9ZaB941X-2" value="" style="endArrow=none;html=1;rounded=0;strokeWidth=0.5;" edge="1" parent="1">
          <mxGeometry width="50" height="50" relative="1" as="geometry">
            <mxPoint x="440" y="480" as="sourcePoint" />
            <mxPoint x="440" y="320" as="targetPoint" />
          </mxGeometry>
        </mxCell>
        <mxCell id="xvQEQHH_XLuV9ZaB941X-3" value="" style="endArrow=none;html=1;rounded=0;strokeWidth=0.5;" edge="1" parent="1">
          <mxGeometry width="50" height="50" relative="1" as="geometry">
            <mxPoint x="440" y="320" as="sourcePoint" />
            <mxPoint x="680" y="320" as="targetPoint" />
          </mxGeometry>
        </mxCell>
        <mxCell id="xvQEQHH_XLuV9ZaB941X-4" value="" style="endArrow=none;html=1;rounded=0;strokeWidth=0.5;" edge="1" parent="1">
          <mxGeometry width="50" height="50" relative="1" as="geometry">
            <mxPoint x="680" y="480" as="sourcePoint" />
            <mxPoint x="680" y="320" as="targetPoint" />
          </mxGeometry>
        </mxCell>
        <mxCell id="xvQEQHH_XLuV9ZaB941X-5" value="" style="endArrow=none;html=1;rounded=0;strokeWidth=0.5;arcSize=20;" edge="1" parent="1">
          <mxGeometry width="50" height="50" relative="1" as="geometry">
            <mxPoint x="460" y="480" as="sourcePoint" />
            <mxPoint x="460" y="477.5" as="targetPoint" />
          </mxGeometry>
        </mxCell>
        <mxCell id="xvQEQHH_XLuV9ZaB941X-6" value="" style="endArrow=none;html=1;rounded=0;strokeWidth=0.5;arcSize=20;" edge="1" parent="1">
          <mxGeometry width="50" height="50" relative="1" as="geometry">
            <mxPoint x="480" y="480" as="sourcePoint" />
            <mxPoint x="480" y="476" as="targetPoint" />
          </mxGeometry>
        </mxCell>
        <mxCell id="xvQEQHH_XLuV9ZaB941X-8" value="" style="endArrow=none;html=1;rounded=0;strokeWidth=0.5;arcSize=20;" edge="1" parent="1">
          <mxGeometry width="50" height="50" relative="1" as="geometry">
            <mxPoint x="500" y="480" as="sourcePoint" />
            <mxPoint x="500" y="477.5" as="targetPoint" />
          </mxGeometry>
        </mxCell>
        <mxCell id="xvQEQHH_XLuV9ZaB941X-10" value="" style="endArrow=none;html=1;rounded=0;strokeWidth=0.5;arcSize=20;" edge="1" parent="1">
          <mxGeometry width="50" height="50" relative="1" as="geometry">
            <mxPoint x="560" y="480" as="sourcePoint" />
            <mxPoint x="560" y="476" as="targetPoint" />
          </mxGeometry>
        </mxCell>
        <mxCell id="xvQEQHH_XLuV9ZaB941X-11" value="" style="endArrow=none;html=1;rounded=0;strokeWidth=0.5;arcSize=20;" edge="1" parent="1">
          <mxGeometry width="50" height="50" relative="1" as="geometry">
            <mxPoint x="520" y="480" as="sourcePoint" />
            <mxPoint x="520" y="476" as="targetPoint" />
          </mxGeometry>
        </mxCell>
        <mxCell id="xvQEQHH_XLuV9ZaB941X-12" value="" style="endArrow=none;html=1;rounded=0;strokeWidth=0.5;arcSize=20;" edge="1" parent="1">
          <mxGeometry width="50" height="50" relative="1" as="geometry">
            <mxPoint x="600" y="480" as="sourcePoint" />
            <mxPoint x="600" y="476" as="targetPoint" />
          </mxGeometry>
        </mxCell>
        <mxCell id="xvQEQHH_XLuV9ZaB941X-15" value="" style="endArrow=none;html=1;rounded=0;strokeWidth=0.5;arcSize=20;" edge="1" parent="1">
          <mxGeometry width="50" height="50" relative="1" as="geometry">
            <mxPoint x="540" y="480" as="sourcePoint" />
            <mxPoint x="540" y="477.5" as="targetPoint" />
          </mxGeometry>
        </mxCell>
        <mxCell id="xvQEQHH_XLuV9ZaB941X-16" value="" style="endArrow=none;html=1;rounded=0;strokeWidth=0.5;arcSize=20;" edge="1" parent="1">
          <mxGeometry width="50" height="50" relative="1" as="geometry">
            <mxPoint x="580" y="480" as="sourcePoint" />
            <mxPoint x="580" y="477.5" as="targetPoint" />
          </mxGeometry>
        </mxCell>
        <mxCell id="xvQEQHH_XLuV9ZaB941X-17" value="" style="endArrow=none;html=1;rounded=0;strokeWidth=0.5;arcSize=20;" edge="1" parent="1">
          <mxGeometry width="50" height="50" relative="1" as="geometry">
            <mxPoint x="620" y="480" as="sourcePoint" />
            <mxPoint x="620" y="477.5" as="targetPoint" />
          </mxGeometry>
        </mxCell>
        <mxCell id="xvQEQHH_XLuV9ZaB941X-18" value="" style="endArrow=none;html=1;rounded=0;strokeWidth=0.5;arcSize=20;" edge="1" parent="1">
          <mxGeometry width="50" height="50" relative="1" as="geometry">
            <mxPoint x="640" y="480" as="sourcePoint" />
            <mxPoint x="640" y="476" as="targetPoint" />
          </mxGeometry>
        </mxCell>
        <mxCell id="xvQEQHH_XLuV9ZaB941X-19" value="" style="endArrow=none;html=1;rounded=0;strokeWidth=0.5;arcSize=20;" edge="1" parent="1">
          <mxGeometry width="50" height="50" relative="1" as="geometry">
            <mxPoint x="660" y="480" as="sourcePoint" />
            <mxPoint x="660" y="477.5" as="targetPoint" />
          </mxGeometry>
        </mxCell>
        <mxCell id="xvQEQHH_XLuV9ZaB941X-20" value="" style="endArrow=none;html=1;rounded=0;strokeWidth=0.5;arcSize=20;" edge="1" parent="1">
          <mxGeometry width="50" height="50" relative="1" as="geometry">
            <mxPoint x="440" y="460" as="sourcePoint" />
            <mxPoint x="442.5" y="460" as="targetPoint" />
          </mxGeometry>
        </mxCell>
        <mxCell id="xvQEQHH_XLuV9ZaB941X-21" value="" style="endArrow=none;html=1;rounded=0;strokeWidth=0.5;arcSize=20;" edge="1" parent="1">
          <mxGeometry width="50" height="50" relative="1" as="geometry">
            <mxPoint x="445" y="440" as="sourcePoint" />
            <mxPoint x="440" y="440" as="targetPoint" />
          </mxGeometry>
        </mxCell>
      </root>
    </mxGraphModel>
  </diagram>
</mxfile>
